<svg xmlns="http://www.w3.org/2000/svg" width="720" height="360" viewBox="0 0 720 360" font-family="Inter, system-ui, sans-serif">
<rect width="720" height="360" fill="#ffffff"/>
<text x="360" y="26" font-size="16" font-weight="600" text-anchor="middle" fill="#111">Input tokens per run</text>
<text x="360" y="350" font-size="11" text-anchor="middle" fill="#555">task (within-task and overall)</text>
<text x="16" y="170" font-size="11" text-anchor="middle" fill="#555" transform="rotate(-90 16 170)">tokens</text>
<line x1="80" y1="290" x2="690" y2="290" stroke="#eee"/>
<text x="74" y="293" font-size="10" text-anchor="end" fill="#777">0</text>
<line x1="80" y1="242" x2="690" y2="242" stroke="#eee"/>
<text x="74" y="245" font-size="10" text-anchor="end" fill="#777">3</text>
<line x1="80" y1="194" x2="690" y2="194" stroke="#eee"/>
<text x="74" y="197" font-size="10" text-anchor="end" fill="#777">6</text>
<line x1="80" y1="146" x2="690" y2="146" stroke="#eee"/>
<text x="74" y="149" font-size="10" text-anchor="end" fill="#777">10</text>
<line x1="80" y1="98" x2="690" y2="98" stroke="#eee"/>
<text x="74" y="101" font-size="10" text-anchor="end" fill="#777">13</text>
<line x1="80" y1="50" x2="690" y2="50" stroke="#eee"/>
<text x="74" y="53" font-size="10" text-anchor="end" fill="#777">16</text>
<rect x="99.0625" y="183.93939393939394" width="36.125" height="106.06060606060605" fill="#888" opacity="0.85"/>
<rect x="137.1875" y="177.87878787878788" width="36.125" height="112.12121212121212" fill="#c0392b" opacity="0.85"/>
<line x1="155.25" y1="170.45609168853582" x2="155.25" y2="185.30148406903993" stroke="#222" stroke-width="1"/>
<line x1="152.25" y1="170.45609168853582" x2="158.25" y2="170.45609168853582" stroke="#222" stroke-width="1"/>
<line x1="152.25" y1="185.30148406903993" x2="158.25" y2="185.30148406903993" stroke="#222" stroke-width="1"/>
<rect x="175.3125" y="159.69696969696972" width="36.125" height="130.30303030303028" fill="#27ae60" opacity="0.85"/>
<line x1="193.375" y1="147.5757575757576" x2="193.375" y2="171.8181818181818" stroke="#222" stroke-width="1"/>
<line x1="190.375" y1="147.5757575757576" x2="196.375" y2="147.5757575757576" stroke="#222" stroke-width="1"/>
<line x1="190.375" y1="171.8181818181818" x2="196.375" y2="171.8181818181818" stroke="#222" stroke-width="1"/>
<text x="156.25" y="308" font-size="11" text-anchor="middle" fill="#333">recall</text>
<rect x="251.5625" y="168.7878787878788" width="36.125" height="121.2121212121212" fill="#888" opacity="0.85"/>
<line x1="269.625" y1="155.23595165151642" x2="269.625" y2="182.33980592424115" stroke="#222" stroke-width="1"/>
<line x1="266.625" y1="155.23595165151642" x2="272.625" y2="155.23595165151642" stroke="#222" stroke-width="1"/>
<line x1="266.625" y1="182.33980592424115" x2="272.625" y2="182.33980592424115" stroke="#222" stroke-width="1"/>
<rect x="289.6875" y="193.03030303030303" width="36.125" height="96.96969696969697" fill="#c0392b" opacity="0.85"/>
<line x1="307.75" y1="180.90909090909093" x2="307.75" y2="205.15151515151516" stroke="#222" stroke-width="1"/>
<line x1="304.75" y1="180.90909090909093" x2="310.75" y2="180.90909090909093" stroke="#222" stroke-width="1"/>
<line x1="304.75" y1="205.15151515151516" x2="310.75" y2="205.15151515151516" stroke="#222" stroke-width="1"/>
<rect x="327.8125" y="190" width="36.125" height="99.99999999999999" fill="#27ae60" opacity="0.85"/>
<line x1="345.875" y1="171.8181818181818" x2="345.875" y2="208.1818181818182" stroke="#222" stroke-width="1"/>
<line x1="342.875" y1="171.8181818181818" x2="348.875" y2="171.8181818181818" stroke="#222" stroke-width="1"/>
<line x1="342.875" y1="208.1818181818182" x2="348.875" y2="208.1818181818182" stroke="#222" stroke-width="1"/>
<text x="308.75" y="308" font-size="11" text-anchor="middle" fill="#333">planning</text>
<rect x="404.0625" y="114.24242424242425" width="36.125" height="175.75757575757575" fill="#888" opacity="0.85"/>
<line x1="422.125" y1="71.81818181818184" x2="422.125" y2="156.66666666666669" stroke="#222" stroke-width="1"/>
<line x1="419.125" y1="71.81818181818184" x2="425.125" y2="71.81818181818184" stroke="#222" stroke-width="1"/>
<line x1="419.125" y1="156.66666666666669" x2="425.125" y2="156.66666666666669" stroke="#222" stroke-width="1"/>
<rect x="442.1875" y="177.87878787878788" width="36.125" height="112.12121212121212" fill="#c0392b" opacity="0.85"/>
<line x1="460.25" y1="135.45454545454544" x2="460.25" y2="220.3030303030303" stroke="#222" stroke-width="1"/>
<line x1="457.25" y1="135.45454545454544" x2="463.25" y2="135.45454545454544" stroke="#222" stroke-width="1"/>
<line x1="457.25" y1="220.3030303030303" x2="463.25" y2="220.3030303030303" stroke="#222" stroke-width="1"/>
<rect x="480.3125" y="199.0909090909091" width="36.125" height="90.9090909090909" fill="#27ae60" opacity="0.85"/>
<text x="461.25" y="308" font-size="11" text-anchor="middle" fill="#333">debug</text>
<rect x="556.5625" y="155.65656565656565" width="36.125" height="134.34343434343435" fill="#888" opacity="0.85"/>
<line x1="574.625" y1="116.19792932399068" x2="574.625" y2="195.11520198914064" stroke="#222" stroke-width="1"/>
<line x1="571.625" y1="116.19792932399068" x2="577.625" y2="116.19792932399068" stroke="#222" stroke-width="1"/>
<line x1="571.625" y1="195.11520198914064" x2="577.625" y2="195.11520198914064" stroke="#222" stroke-width="1"/>
<rect x="594.6875" y="182.92929292929296" width="36.125" height="107.07070707070706" fill="#c0392b" opacity="0.85"/>
<line x1="612.75" y1="156.12828452238062" x2="612.75" y2="209.73030133620526" stroke="#222" stroke-width="1"/>
<line x1="609.75" y1="156.12828452238062" x2="615.75" y2="156.12828452238062" stroke="#222" stroke-width="1"/>
<line x1="609.75" y1="209.73030133620526" x2="615.75" y2="209.73030133620526" stroke="#222" stroke-width="1"/>
<rect x="632.8125" y="182.92929292929296" width="36.125" height="107.07070707070706" fill="#27ae60" opacity="0.85"/>
<line x1="650.875" y1="161.88619529697007" x2="650.875" y2="203.97239056161584" stroke="#222" stroke-width="1"/>
<line x1="647.875" y1="161.88619529697007" x2="653.875" y2="161.88619529697007" stroke="#222" stroke-width="1"/>
<line x1="647.875" y1="203.97239056161584" x2="653.875" y2="203.97239056161584" stroke="#222" stroke-width="1"/>
<text x="613.75" y="308" font-size="11" text-anchor="middle" fill="#333">ALL</text>
<rect x="80" y="23" width="11" height="11" fill="#888"/>
<text x="96" y="32" font-size="11" fill="#333">no-context</text>
<rect x="190" y="23" width="11" height="11" fill="#c0392b"/>
<text x="206" y="32" font-size="11" fill="#333">raw-memory</text>
<rect x="300" y="23" width="11" height="11" fill="#27ae60"/>
<text x="316" y="32" font-size="11" fill="#333">brief</text>
</svg>