<svg xmlns="http://www.w3.org/2000/svg" width="720" height="360" viewBox="0 0 720 360" font-family="Inter, system-ui, sans-serif">
<rect width="720" height="360" fill="#ffffff"/>
<text x="360" y="26" font-size="16" font-weight="600" text-anchor="middle" fill="#111">Turns per run</text>
<text x="360" y="350" font-size="11" text-anchor="middle" fill="#555">task (within-task and overall)</text>
<text x="16" y="170" font-size="11" text-anchor="middle" fill="#555" transform="rotate(-90 16 170)">turns</text>
<line x1="80" y1="290" x2="690" y2="290" stroke="#eee"/>
<text x="74" y="293" font-size="10" text-anchor="end" fill="#777">0.0</text>
<line x1="80" y1="242" x2="690" y2="242" stroke="#eee"/>
<text x="74" y="245" font-size="10" text-anchor="end" fill="#777">1.0</text>
<line x1="80" y1="194" x2="690" y2="194" stroke="#eee"/>
<text x="74" y="197" font-size="10" text-anchor="end" fill="#777">1.9</text>
<line x1="80" y1="146" x2="690" y2="146" stroke="#eee"/>
<text x="74" y="149" font-size="10" text-anchor="end" fill="#777">2.9</text>
<line x1="80" y1="98" x2="690" y2="98" stroke="#eee"/>
<text x="74" y="101" font-size="10" text-anchor="end" fill="#777">3.9</text>
<line x1="80" y1="50" x2="690" y2="50" stroke="#eee"/>
<text x="74" y="53" font-size="10" text-anchor="end" fill="#777">4.8</text>
<rect x="99.0625" y="121.40495867768598" width="36.125" height="168.59504132231402" fill="#888" opacity="0.85"/>
<line x1="117.125" y1="97.11249841867925" x2="117.125" y2="145.69741893669269" stroke="#222" stroke-width="1"/>
<line x1="114.125" y1="97.11249841867925" x2="120.125" y2="97.11249841867925" stroke="#222" stroke-width="1"/>
<line x1="114.125" y1="145.69741893669269" x2="120.125" y2="145.69741893669269" stroke="#222" stroke-width="1"/>
<rect x="137.1875" y="161.07438016528926" width="36.125" height="128.92561983471074" fill="#c0392b" opacity="0.85"/>
<line x1="155.25" y1="136.78191990628255" x2="155.25" y2="185.366840424296" stroke="#222" stroke-width="1"/>
<line x1="152.25" y1="136.78191990628255" x2="158.25" y2="136.78191990628255" stroke="#222" stroke-width="1"/>
<line x1="152.25" y1="185.366840424296" x2="158.25" y2="185.366840424296" stroke="#222" stroke-width="1"/>
<rect x="175.3125" y="111.48760330578514" width="36.125" height="178.51239669421486" fill="#27ae60" opacity="0.85"/>
<line x1="193.375" y1="71.81818181818181" x2="193.375" y2="151.15702479338844" stroke="#222" stroke-width="1"/>
<line x1="190.375" y1="71.81818181818181" x2="196.375" y2="71.81818181818181" stroke="#222" stroke-width="1"/>
<line x1="190.375" y1="151.15702479338844" x2="196.375" y2="151.15702479338844" stroke="#222" stroke-width="1"/>
<text x="156.25" y="308" font-size="11" text-anchor="middle" fill="#333">recall</text>
<rect x="251.5625" y="141.23966942148763" width="36.125" height="148.76033057851237" fill="#888" opacity="0.85"/>
<line x1="269.625" y1="96.88790788430171" x2="269.625" y2="185.59143095867353" stroke="#222" stroke-width="1"/>
<line x1="266.625" y1="96.88790788430171" x2="272.625" y2="96.88790788430171" stroke="#222" stroke-width="1"/>
<line x1="266.625" y1="185.59143095867353" x2="272.625" y2="185.59143095867353" stroke="#222" stroke-width="1"/>
<rect x="289.6875" y="220.57851239669424" width="36.125" height="69.42148760330578" fill="#c0392b" opacity="0.85"/>
<line x1="307.75" y1="180.9090909090909" x2="307.75" y2="260.24793388429754" stroke="#222" stroke-width="1"/>
<line x1="304.75" y1="180.9090909090909" x2="310.75" y2="180.9090909090909" stroke="#222" stroke-width="1"/>
<line x1="304.75" y1="260.24793388429754" x2="310.75" y2="260.24793388429754" stroke="#222" stroke-width="1"/>
<rect x="327.8125" y="210.6611570247934" width="36.125" height="79.3388429752066" fill="#27ae60" opacity="0.85"/>
<line x1="345.875" y1="151.15702479338844" x2="345.875" y2="270.1652892561984" stroke="#222" stroke-width="1"/>
<line x1="342.875" y1="151.15702479338844" x2="348.875" y2="151.15702479338844" stroke="#222" stroke-width="1"/>
<line x1="342.875" y1="270.1652892561984" x2="348.875" y2="270.1652892561984" stroke="#222" stroke-width="1"/>
<text x="308.75" y="308" font-size="11" text-anchor="middle" fill="#333">planning</text>
<rect x="404.0625" y="161.07438016528926" width="36.125" height="128.92561983471074" fill="#888" opacity="0.85"/>
<line x1="422.125" y1="121.40495867768595" x2="422.125" y2="200.74380165289256" stroke="#222" stroke-width="1"/>
<line x1="419.125" y1="121.40495867768595" x2="425.125" y2="121.40495867768595" stroke="#222" stroke-width="1"/>
<line x1="419.125" y1="200.74380165289256" x2="425.125" y2="200.74380165289256" stroke="#222" stroke-width="1"/>
<rect x="442.1875" y="220.57851239669424" width="36.125" height="69.42148760330578" fill="#c0392b" opacity="0.85"/>
<line x1="460.25" y1="180.9090909090909" x2="460.25" y2="260.24793388429754" stroke="#222" stroke-width="1"/>
<line x1="457.25" y1="180.9090909090909" x2="463.25" y2="180.9090909090909" stroke="#222" stroke-width="1"/>
<line x1="457.25" y1="260.24793388429754" x2="463.25" y2="260.24793388429754" stroke="#222" stroke-width="1"/>
<rect x="480.3125" y="240.41322314049586" width="36.125" height="49.58677685950413" fill="#27ae60" opacity="0.85"/>
<text x="461.25" y="308" font-size="11" text-anchor="middle" fill="#333">debug</text>
<rect x="556.5625" y="141.23966942148763" width="36.125" height="148.76033057851237" fill="#888" opacity="0.85"/>
<line x1="574.625" y1="100.75223565647642" x2="574.625" y2="181.72710318649882" stroke="#222" stroke-width="1"/>
<line x1="571.625" y1="100.75223565647642" x2="577.625" y2="100.75223565647642" stroke="#222" stroke-width="1"/>
<line x1="571.625" y1="181.72710318649882" x2="577.625" y2="181.72710318649882" stroke="#222" stroke-width="1"/>
<rect x="594.6875" y="200.74380165289256" width="36.125" height="89.25619834710743" fill="#c0392b" opacity="0.85"/>
<line x1="612.75" y1="155.6589034810385" x2="612.75" y2="245.82869982474662" stroke="#222" stroke-width="1"/>
<line x1="609.75" y1="155.6589034810385" x2="615.75" y2="155.6589034810385" stroke="#222" stroke-width="1"/>
<line x1="609.75" y1="245.82869982474662" x2="615.75" y2="245.82869982474662" stroke="#222" stroke-width="1"/>
<rect x="632.8125" y="187.5206611570248" width="36.125" height="102.47933884297521" fill="#27ae60" opacity="0.85"/>
<line x1="650.875" y1="118.65234163305897" x2="650.875" y2="256.3889806809906" stroke="#222" stroke-width="1"/>
<line x1="647.875" y1="118.65234163305897" x2="653.875" y2="118.65234163305897" stroke="#222" stroke-width="1"/>
<line x1="647.875" y1="256.3889806809906" x2="653.875" y2="256.3889806809906" stroke="#222" stroke-width="1"/>
<text x="613.75" y="308" font-size="11" text-anchor="middle" fill="#333">ALL</text>
<rect x="80" y="23" width="11" height="11" fill="#888"/>
<text x="96" y="32" font-size="11" fill="#333">no-context</text>
<rect x="190" y="23" width="11" height="11" fill="#c0392b"/>
<text x="206" y="32" font-size="11" fill="#333">raw-memory</text>
<rect x="300" y="23" width="11" height="11" fill="#27ae60"/>
<text x="316" y="32" font-size="11" fill="#333">brief</text>
</svg>